PathFileType	4	(X/Y/Z)	Kaydara	
DataRate	CameraRate	NumFrames	NumMarkers	Units	OrigDataRate	OrigDataStartFrame	OrigNumFrames	
60.00	60.00	5	74	mm	60.00	351	151	
Frame#	Time	Z_lasi			Z_rasi			Z_rpsi			Z_lpsi			Z_fneck			Z_bneck			Z_fhead			Z_rhead			Z_lhead			Z_rshld			Z_relbtop			Z_relbext			Z_relblow			Z_rwrext			Z_rwrtop			Z_rwrlow			Z_lshld			Z_lelbext			Z_lelblow			Z_lelbtop			Z_lwrext			Z_lwrtop			Z_lwrlow			Z_rtopleg			Z_ltopleg			Z_rkneefr			Z_rkneebk			Z_rkneeis			Z_lkneefr			Z_lknssbk			Z_lkneeis			Z_rankfr			Z_rankis			Z_rankbk			Z_lankfr			Z_lankbk			Z_lankis			A_lasi			A_rasi			A_rpsi			A_lpsi			A_fneck			A_bneck			A_fhead			A_rhead			A_lhead			A_rshld			A_relbtop			A_relbext			A_relblow			A_rwrext			A_rwrtop			A_rwrlow			A_lshld			A_lelbext			A_lelblow			A_lelbtop			A_lwrext			A_lwrtop			A_lwrlow			A_rtopleg			A_ltopleg			A_rkneefr			A_rkneebk			A_rkneeis			A_lkneefr			A_lknssbk			A_lkneeis			A_rankfr			A_rankis			A_rankbk			A_lankfr			A_lankbk			A_lankis			
		X1	Y1	Z1	X2	Y2	Z2	X3	Y3	Z3	X4	Y4	Z4	X5	Y5	Z5	X6	Y6	Z6	X7	Y7	Z7	X8	Y8	Z8	X9	Y9	Z9	X10	Y10	Z10	X11	Y11	Z11	X12	Y12	Z12	X13	Y13	Z13	X14	Y14	Z14	X15	Y15	Z15	X16	Y16	Z16	X17	Y17	Z17	X18	Y18	Z18	X19	Y19	Z19	X20	Y20	Z20	X21	Y21	Z21	X22	Y22	Z22	X23	Y23	Z23	X24	Y24	Z24	X25	Y25	Z25	X26	Y26	Z26	X27	Y27	Z27	X28	Y28	Z28	X29	Y29	Z29	X30	Y30	Z30	X31	Y31	Z31	X32	Y32	Z32	X33	Y33	Z33	X34	Y34	Z34	X35	Y35	Z35	X36	Y36	Z36	X37	Y37	Z37	X38	Y38	Z38	X39	Y39	Z39	X40	Y40	Z40	X41	Y41	Z41	X42	Y42	Z42	X43	Y43	Z43	X44	Y44	Z44	X45	Y45	Z45	X46	Y46	Z46	X47	Y47	Z47	X48	Y48	Z48	X49	Y49	Z49	X50	Y50	Z50	X51	Y51	Z51	X52	Y52	Z52	X53	Y53	Z53	X54	Y54	Z54	X55	Y55	Z55	X56	Y56	Z56	X57	Y57	Z57	X58	Y58	Z58	X59	Y59	Z59	X60	Y60	Z60	X61	Y61	Z61	X62	Y62	Z62	X63	Y63	Z63	X64	Y64	Z64	X65	Y65	Z65	X66	Y66	Z66	X67	Y67	Z67	X68	Y68	Z68	X69	Y69	Z69	X70	Y70	Z70	X71	Y71	Z71	X72	Y72	Z72	X73	Y73	Z73	X74	Y74	Z74	

1	5.833	-276.67782	1077.21802	704.00116	-314.56352	1091.20140	500.88631	-142.30395	1115.50163	430.47859	-87.63519	1095.29694	668.64960	-267.29467	1455.31876	598.77602	-148.92799	1510.57922	603.49079	-307.44675	1661.18668	502.88082	-146.36507	1613.01666	501.26492	-194.94499	1665.41931	631.03436	-210.05955	1442.60452	398.10112	-161.24218	1124.07036	310.03784	-150.24064	1103.94119	366.95038	-234.01482	1136.49422	331.99512	-273.65871	903.89801	286.23381	-311.95730	920.33569	305.46284	-299.01665	913.36517	346.97338	-154.96888	1437.33002	788.04657	-119.07143	1121.87958	785.37560	-174.92270	1145.94688	850.94574	-106.52116	1140.39650	853.38669	-269.95676	901.61110	838.62152	-255.26508	891.33293	882.47925	-211.14115	881.89255	869.23347	-190.78915	928.21419	376.55220	-193.13457	890.83481	741.23535	-256.51104	422.85419	407.66335	-184.18255	455.43758	363.15983	-196.94923	430.83576	485.05600	-224.20818	444.31816	682.41081	-118.21032	472.85507	675.58846	-209.19487	443.26649	591.02108	-206.42462	182.76993	378.23017	-185.41656	176.19051	441.15192	-129.92859	177.77081	373.63857	-155.50554	162.12687	671.76147	-96.85550	167.25882	618.39203	-174.22478	174.14776	601.81820	-997.93869	1036.18874	472.27249	-986.05621	1042.03522	631.76685	-1143.96835	1036.32515	653.08907	-1121.35956	1041.89331	470.67513	-1066.26244	1382.78183	565.14217	-1205.77972	1406.13388	552.45983	-1017.27524	1596.09512	560.15156	-1162.01569	1561.31073	647.16682	-1162.62276	1551.15372	484.44073	-1145.54085	1348.22540	743.76404	-1121.69693	1055.55710	774.68506	-1179.90311	1047.70897	746.62315	-1113.80692	1045.40138	717.27539	-1096.06850	808.97751	801.42052	-1052.82570	820.03181	790.60074	-1056.03691	822.38335	753.81027	-1109.51675	1350.81314	386.57600	-1128.46199	1038.98575	372.81952	-1059.61487	1050.82703	390.75325	-1088.02834	1047.23953	344.79305	-1027.32918	825.67505	381.08387	-1032.29195	824.90280	340.35072	-988.75801	837.02621	348.07491	-1085.50522	875.41245	732.33620	-1053.59039	891.14975	394.84161	-1035.44411	453.92235	637.68780	-1140.22469	483.83957	687.13028	-1125.97466	485.00774	568.23246	-1021.13747	466.97304	512.19593	-1102.69821	478.57567	414.53087	-1127.76741	477.74433	538.45287	-1099.35135	164.36781	659.52980	-1135.61813	161.62235	595.44781	-1179.86694	151.29847	666.49567	-1068.42117	165.60686	458.98766	-1129.10187	166.84946	422.44370	-1129.06937	171.97662	511.29723 
2	5.850	-277.77313	1077.39227	703.08029	-315.50135	1090.98862	500.04017	-143.26505	1115.65430	430.05260	-88.88339	1095.84251	668.18901	-267.94718	1456.13327	596.27277	-149.40457	1510.24155	602.03247	-304.54409	1663.16467	500.11215	-143.89532	1613.29208	500.84538	-194.23901	1665.17685	630.33092	-210.51167	1442.33597	396.38592	-162.29809	1123.50632	309.25444	-151.23147	1103.47824	366.13350	-235.05713	1136.10146	331.14670	-275.13729	903.48221	286.25130	-313.39550	920.02327	305.43985	-300.08057	913.03726	346.91635	-156.46352	1438.55774	786.40297	-120.23501	1123.20953	785.08766	-176.95702	1147.15363	850.00130	-108.35006	1141.89178	853.15140	-271.05360	902.53326	837.14653	-256.58266	892.41028	881.03668	-212.45033	883.16429	868.22716	-191.14079	928.35495	376.07780	-193.68303	890.98923	740.72159	-256.02434	422.91279	407.56741	-183.71822	455.43346	363.09441	-196.53339	430.95955	485.02758	-223.59806	444.45274	681.96945	-117.79309	473.00346	675.31059	-208.56928	443.38802	590.53215	-206.24590	182.81698	378.13160	-185.29116	176.18298	441.12778	-129.75891	177.70559	373.59901	-155.39474	162.29601	671.80702	-96.67331	167.25578	618.36452	-173.99858	174.15173	601.66386	-998.49991	1036.12114	472.05284	-986.37520	1041.87508	631.51489	-1144.25407	1036.42784	653.13889	-1122.03316	1042.04613	470.68512	-1065.93102	1382.91626	565.08823	-1205.61401	1406.03226	552.68291	-1017.55081	1596.39633	560.13523	-1162.08565	1561.24893	647.27905	-1162.79411	1551.14517	484.52656	-1144.45938	1348.65036	743.92540	-1120.64415	1056.08337	775.32471	-1179.36951	1048.22815	748.58055	-1114.12354	1045.62233	717.58759	-1094.96964	809.70932	802.51144	-1051.83060	820.35248	790.97130	-1054.99001	822.90955	754.54094	-1109.70451	1350.88623	386.72729	-1128.80768	1039.11133	372.66968	-1059.91364	1050.89188	390.64674	-1088.33366	1047.36031	344.66228	-1027.99988	825.63126	380.77976	-1033.05428	824.97009	340.00114	-989.39011	836.98013	347.61097	-1085.61340	875.56824	732.54646	-1053.91670	890.98381	394.57336	-1035.70488	453.93826	637.56184	-1140.51094	483.79219	687.08336	-1126.25481	484.94396	568.14594	-1021.48293	466.99623	512.15210	-1103.13522	478.52840	414.49829	-1128.09082	477.72190	538.36258	-1099.40216	164.37008	659.48265	-1135.71739	161.55272	595.34969	-1179.90089	151.24397	666.46545	-1068.53065	165.63471	458.97442	-1129.20212	166.82295	422.43145	-1129.19411	171.97268	511.30692 
3	5.867	-278.83236	1077.62772	702.27425	-316.44323	1090.87906	499.31118	-144.22159	1115.81459	429.55162	-90.10061	1096.26968	667.79556	-268.61807	1456.75354	593.94867	-149.98195	1509.82941	600.73689	-301.83680	1665.13672	498.05206	-141.73307	1613.74130	500.61871	-193.39401	1664.92767	629.79481	-210.72348	1442.06802	394.56631	-163.58383	1122.83043	308.47855	-152.53423	1102.99034	365.50480	-236.31893	1135.60776	330.44292	-276.86306	902.93442	286.19328	-315.03149	919.61105	305.38166	-301.75095	912.69135	346.79344	-158.07012	1439.59045	784.83475	-121.60413	1124.38148	784.83513	-178.83024	1148.25844	849.06113	-110.36167	1143.18787	852.87453	-272.03863	903.27026	835.62881	-258.15197	893.15895	879.83841	-213.85715	884.19899	867.57973	-191.62886	928.49480	375.69290	-194.28326	891.11771	740.29068	-255.32511	423.02376	407.52666	-183.09284	455.48286	363.08098	-196.40514	431.26095	485.30571	-223.03532	444.49455	681.53076	-117.33835	473.18970	674.96719	-207.91288	443.55980	589.98974	-205.98763	182.87977	378.02502	-185.08488	176.19835	441.07304	-129.52799	177.62997	373.55824	-155.09768	162.36652	671.72974	-96.43003	167.28691	618.33687	-173.79351	174.18905	601.64070	-999.09195	1036.03439	471.82751	-986.80588	1041.70631	631.37383	-1144.45213	1036.47484	653.11905	-1122.58583	1042.17041	470.69267	-1065.55725	1383.01498	565.04646	-1205.42297	1405.96054	552.96448	-1017.64099	1596.58310	560.16815	-1162.10007	1561.26740	647.38670	-1162.84988	1551.14273	484.61136	-1143.50868	1349.06754	744.04602	-1119.46068	1056.57700	775.76500	-1178.86337	1048.69446	750.33798	-1114.38904	1045.88524	717.90199	-1094.13879	810.32242	803.52402	-1051.06384	820.79689	791.13121	-1054.19113	823.43834	755.12718	-1109.91310	1350.93536	386.84574	-1129.17931	1039.21364	372.51232	-1060.31082	1050.91232	390.50362	-1088.77426	1047.45178	344.52824	-1028.82278	825.75699	380.32204	-1033.69278	824.98360	339.75853	-990.00443	836.89957	347.27669	-1085.76195	875.59685	732.63000	-1055.35927	891.83487	394.49806	-1035.93246	453.97369	637.38091	-1140.65063	483.74401	686.90781	-1126.48949	484.91318	567.99278	-1021.75362	467.01920	512.09923	-1103.44437	478.49205	414.49097	-1128.29773	477.71374	538.29384	-1099.46777	164.36672	659.40750	-1135.76782	161.50423	595.24464	-1179.94408	151.20969	666.41884	-1068.59756	165.64939	458.94089	-1129.30038	166.78225	422.40776	-1129.21951	171.92400	511.33278 
4	5.883	-279.83292	1077.82372	701.52679	-317.41850	1090.79163	498.63926	-145.25659	1115.94833	429.12762	-91.19235	1096.68900	667.35657	-269.09958	1457.39731	591.75201	-150.29928	1509.55978	599.27746	-299.42396	1666.91391	496.32690	-139.75428	1614.35898	500.44922	-192.78873	1664.55612	629.53537	-210.80816	1441.75415	392.79217	-164.91438	1122.06375	308.01092	-153.94651	1102.40105	365.04436	-237.63815	1135.09010	329.91570	-278.64029	902.40196	286.07214	-316.76414	919.11980	305.15911	-303.49380	912.32262	346.69159	-159.27473	1440.57022	783.30063	-122.96763	1125.26718	784.38850	-180.95505	1149.25125	848.13766	-112.30378	1144.20059	852.38762	-272.88658	903.56384	834.13506	-259.80234	893.76549	878.58574	-215.13689	884.98566	867.32941	-192.24802	928.66058	375.29812	-194.84509	891.20949	739.83864	-254.62111	423.13210	407.55116	-182.36212	455.53810	362.92778	-195.81097	431.42654	485.36198	-222.59695	444.57764	681.16707	-116.79356	473.40828	674.56482	-207.34354	443.71326	589.48612	-205.71054	182.97478	377.92671	-184.91241	176.30093	441.02180	-129.31983	177.55735	373.50784	-154.97723	162.48924	671.73279	-96.24500	167.29868	618.28403	-173.75061	174.31829	601.61388	-999.64149	1035.98053	471.53923	-987.19299	1041.56395	631.20049	-1144.98543	1036.61774	653.25890	-1123.16032	1042.29164	470.72075	-1065.31158	1383.12088	565.07034	-1205.21927	1405.95184	553.30368	-1017.60170	1596.68396	560.17323	-1161.91841	1561.31271	647.48207	-1162.82249	1551.14487	484.68132	-1142.73697	1349.40079	744.23149	-1118.60435	1056.92795	776.26869	-1178.49777	1049.12102	751.88484	-1114.33823	1046.14120	718.42781	-1093.25500	810.67909	804.01970	-1050.24094	821.14639	791.15738	-1053.33786	823.79143	755.38803	-1110.11215	1350.93857	386.94572	-1129.64966	1039.26254	372.39788	-1060.86586	1050.89828	390.42858	-1089.27376	1047.50702	344.44050	-1029.36768	825.73723	380.14942	-1034.28009	825.02846	339.53850	-990.62096	836.90086	347.02084	-1085.99724	875.64194	732.54799	-1055.81596	891.58905	394.37344	-1036.16745	454.00372	637.18227	-1140.83534	483.75038	686.73508	-1126.64200	484.89418	567.84649	-1021.91513	467.05070	511.97788	-1103.69446	478.46989	414.44672	-1128.49358	477.69325	538.22128	-1099.48639	164.36623	659.34090	-1135.81169	161.47526	595.14282	-1179.99863	151.19566	666.33575	-1068.66196	165.65189	458.91369	-1129.26514	166.84376	422.27036	-1129.26971	171.92629	511.33148 
5	5.900	-280.65331	1077.97577	700.77972	-318.36611	1090.70686	498.04092	-145.73772	1116.16699	428.19256	-92.01809	1096.95839	666.86485	-269.46270	1457.69363	589.80858	-150.71366	1509.23767	598.07590	-297.62842	1668.48938	495.04204	-138.20432	1615.01251	500.23144	-192.24716	1663.97141	629.36710	-210.78793	1441.35544	391.16440	-166.33850	1121.29570	307.55161	-155.31068	1101.65543	364.61140	-238.89116	1134.61960	329.25049	-280.37090	901.91246	285.86874	-318.53731	918.68355	305.03653	-305.38603	911.98547	346.50673	-160.28595	1441.19095	781.91864	-124.46542	1125.82756	783.87428	-182.72913	1149.91402	847.10419	-114.18861	1144.94911	851.86462	-273.60781	903.63937	832.92336	-261.15942	894.05548	877.57004	-216.46271	885.70145	867.14798	-192.73766	928.82668	374.91974	-195.42860	891.30951	739.47853	-253.88115	423.22037	407.48905	-181.62577	455.61680	362.81563	-194.29396	431.28765	484.71947	-222.39313	444.68914	680.81619	-116.52866	473.55728	674.22630	-207.10154	443.79818	589.15607	-205.52668	183.04295	377.82814	-184.71426	176.35420	440.93071	-129.10893	177.53004	373.43811	-155.08135	162.65659	671.82922	-96.17213	167.30625	618.27389	-173.60142	174.32957	601.59405	-1000.09857	1035.93773	471.28063	-987.51274	1041.46866	630.98156	-1145.42145	1036.74828	653.33748	-1123.71490	1042.36206	470.76805	-1065.11955	1383.17123	565.06168	-1205.04921	1406.06995	553.55747	-1017.42920	1596.71112	560.09304	-1161.62811	1561.43631	647.57774	-1162.70935	1551.22208	484.73892	-1141.94572	1349.66827	744.27528	-1117.79388	1057.18224	776.61133	-1178.19084	1049.35104	753.34106	-1114.46548	1046.15723	718.64395	-1092.15858	810.85899	804.20135	-1049.45061	821.52519	790.88165	-1052.39449	824.07074	755.34111	-1110.29022	1350.93918	387.02820	-1130.25398	1039.26750	372.31510	-1061.45126	1050.86090	390.37552	-1089.84917	1047.52960	344.35814	-1029.85374	825.64644	380.08282	-1034.87503	825.02815	339.38866	-991.25526	836.92955	346.92280	-1086.39366	875.60364	732.49237	-1056.11931	891.37741	394.27959	-1036.35231	453.99879	637.03129	-1140.98656	483.76232	686.61400	-1126.79260	484.89849	567.71835	-1022.02797	467.11281	511.81702	-1103.91235	478.47450	414.37943	-1128.65883	477.71637	538.20702	-1099.50966	164.37616	659.27658	-1135.81711	161.48600	595.02583	-1179.99031	151.17203	666.26877	-1068.73047	165.67434	458.88790	-1129.45503	166.73496	422.40433	-1129.32251	171.93548	511.33976 
